# xmcd CD database file
#
# Track frame offsets:
#	150
#	16019
#	31808
#	47728
#	62113
#	75648
#	91238
#	105664
#	119775
#	133373
#	146778
#	160089
#
# Disc length: 2340 seconds
#
# Revision: 1
# Processed by: cddbd v1.5.2PL0 Copyright (c) Steve Scherf et al.
# Submitted via: CDex 1.70beta2
#
DISCID=a009220c
DTITLE=Bessie Smith - Jazz Diva's CD1
DYEAR=2008
DGENRE=Blues
TTITLE0=My Man Blues
TTITLE1=Gimme A Pigfoot
TTITLE2=Hustlin' Dan
TTITLE3=I'm Down In The Dumps
TTITLE4=Mean Old Bed Bug Blues
TTITLE5=Careless Love Blues
TTITLE6=Devil's Gonna Get You
TTITLE7=Thinking Blues
TTITLE8=Alexander's Ragtime Band
TTITLE9=After You've Gone
TTITLE10=Blue Spirit Blues
TTITLE11=Do Your Duty
EXTD=YEAR: 2008
EXTT0=
EXTT1=
EXTT2=
EXTT3=
EXTT4=
EXTT5=
EXTT6=
EXTT7=
EXTT8=
EXTT9=
EXTT10=
EXTT11=
PLAYORDER=
